# xmcd
#
# Track frame offsets:
#	150
#	9852
#	16135
#	23987
#	29567
#	34337
#	38230
#	43227
#	52050
#	58650
#	63882
#	70405
#	77352
#	83205
#	91430
#	99442
#	105292
#	110855
#	116220
#	120700
#	128015
#	134455
#	139717
#	149575
#	153620
#	156402
#	158777
#	162687
#	165532
#	168397
#	174297
#	175837
#	180905
#
# Disc length: 2450 seconds
#
# Revision: 1
# Processed by: cddbd v1.5.1PL0 Copyright (c) Steve Scherf et al.
# Submitted via: CDex 1.50Beta5
#
DISCID=c5099021
DTITLE=メタルフォーク - メタルフォークジャンボリー
DYEAR=1998
DGENRE=
TTITLE0=プロローグ〜再生の時
TTITLE1=夕暮れ時は淋しそう
TTITLE2=チューリップのアップリケ
TTITLE3=各駅停車
TTITLE4=黒いカバン
TTITLE5=ロマンス
TTITLE6=紙風船
TTITLE7=出発の歌
TTITLE8=花嫁
TTITLE9=ある日突然
TTITLE10=精霊流し
TTITLE11=恋
TTITLE12=流恋情歌
TTITLE13=岬めぐり
TTITLE14=わかって下さい
TTITLE15=白い冬
TTITLE16=竹田の子守唄
TTITLE17=世界は二人のために
TTITLE18=我が良き友よ
TTITLE19=ケンとメリー
TTITLE20=なごり雪
TTITLE21=「いちご白書」をもう一度
TTITLE22=東へ西へ
TTITLE23=あの素晴しい愛をもう一度
TTITLE24=氷の世界
TTITLE25=赤ちょうちん
TTITLE26=神田川
TTITLE27=学生街の喫茶店
TTITLE28=傘がない
TTITLE29=チャンピオン
TTITLE30=旅の宿
TTITLE31=人間なんて
TTITLE32=手紙
EXTD=
EXTT0=
EXTT1=
EXTT2=
EXTT3=
EXTT4=
EXTT5=
EXTT6=
EXTT7=
EXTT8=
EXTT9=
EXTT10=
EXTT11=
EXTT12=
EXTT13=
EXTT14=
EXTT15=
EXTT16=
EXTT17=
EXTT18=
EXTT19=
EXTT20=
EXTT21=
EXTT22=
EXTT23=
EXTT24=
EXTT25=
EXTT26=
EXTT27=
EXTT28=
EXTT29=
EXTT30=
EXTT31=
EXTT32=
PLAYORDER=
